<svg xmlns="http://www.w3.org/2000/svg" width="1920" height="1080"><path d="M13,1261L-191,1244L303,1302Z" fill="#a4506b" stroke="#a4506b" stroke-width="1.51"/><path d="M303,1302L-191,1244L382,1313Z" fill="#a85971" stroke="#a85971" stroke-width="1.51"/><path d="M768,-226L1325,-230L1510,-252Z" fill="#d98f89" stroke="#d98f89" stroke-width="1.51"/><path d="M382,-248L768,-226L1510,-252Z" fill="#e08f67" stroke="#e08f67" stroke-width="1.51"/><path d="M1627,1317L1239,1345L1767,1319Z" fill="#6983be" stroke="#6983be" stroke-width="1.51"/><path d="M1510,-252L1780,-233L1932,-233Z" fill="#a66775" stroke="#a66775" stroke-width="1.51"/><path d="M1926,398L2034,588L2107,392Z" fill="#a9a1ab" stroke="#a9a1ab" stroke-width="1.51"/><path d="M1941,-37L2109,53L2110,-110Z" fill="#a6546f" stroke="#a6546f" stroke-width="1.51"/><path d="M1905,1262L1767,1319L2118,1284Z" fill="#4162ab" stroke="#4162ab" stroke-width="1.51"/><path d="M2063,798L1943,817L2124,991Z" fill="#7794c7" stroke="#7794c7" stroke-width="1.51"/><path d="M2062,1149L2118,1284L2124,991Z" fill="#4966ae" stroke="#4966ae" stroke-width="1.51"/><path d="M2107,392L2034,588L2130,652Z" fill="#a49eb2" stroke="#a49eb2" stroke-width="1.51"/><path d="M2034,588L2063,798L2130,652Z" fill="#959cc8" stroke="#959cc8" stroke-width="1.51"/><path d="M2063,798L2124,991L2130,652Z" fill="#7f8fc5" stroke="#7f8fc5" stroke-width="1.51"/><path d="M1932,-233L2110,-110L2135,-219Z" fill="#953f64" stroke="#953f64" stroke-width="1.51"/><path d="M2110,-110L2109,53L2135,-219Z" fill="#9e4065" stroke="#9e4065" stroke-width="1.51"/><path d="M2109,53L1981,223L2137,265Z" fill="#ab7482" stroke="#ab7482" stroke-width="1.51"/><path d="M1981,223L2107,392L2137,265Z" fill="#a98691" stroke="#a98691" stroke-width="1.51"/><path d="M2107,392L2130,652L2137,265Z" fill="#a590a1" stroke="#a590a1" stroke-width="1.51"/><path d="M2135,-219L2109,53L2137,265Z" fill="#a65271" stroke="#a65271" stroke-width="1.51"/><path d="M-149,-237L6,-226L382,-248Z" fill="#ca302c" stroke="#ca302c" stroke-width="1.51"/><path d="M2062,1149L1974,1194L2118,1284Z" fill="#4162ab" stroke="#4162ab" stroke-width="1.51"/><path d="M1897,1037L2062,1149L2124,991Z" fill="#587eba" stroke="#587eba" stroke-width="1.51"/><path d="M1943,817L1897,1037L2124,991Z" fill="#6b92c5" stroke="#6b92c5" stroke-width="1.51"/><path d="M1981,223L1926,398L2107,392Z" fill="#ac979b" stroke="#ac979b" stroke-width="1.51"/><path d="M1926,398L1904,523L2034,588Z" fill="#abafb5" stroke="#abafb5" stroke-width="1.51"/><path d="M2034,588L1892,699L2063,798Z" fill="#96a7d0" stroke="#96a7d0" stroke-width="1.51"/><path d="M1880,89L1981,223L2109,53Z" fill="#af7781" stroke="#af7781" stroke-width="1.51"/><path d="M1974,1194L1905,1262L2118,1284Z" fill="#4161ab" stroke="#4161ab" stroke-width="1.51"/><path d="M1932,-233L1941,-37L2110,-110Z" fill="#a24f69" stroke="#a24f69" stroke-width="1.51"/><path d="M1941,-37L1880,89L2109,53Z" fill="#af6979" stroke="#af6979" stroke-width="1.51"/><path d="M1897,1037L1974,1194L2062,1149Z" fill="#4f79b7" stroke="#4f79b7" stroke-width="1.51"/><path d="M1892,699L1943,817L2063,798Z" fill="#8aa6d0" stroke="#8aa6d0" stroke-width="1.51"/><path d="M1904,523L1892,699L2034,588Z" fill="#a3b1c4" stroke="#a3b1c4" stroke-width="1.51"/><path d="M894,1281L538,1329L1239,1345Z" fill="#a69aab" stroke="#a69aab" stroke-width="1.51"/><path d="M1528,1296L1239,1345L1627,1317Z" fill="#738bc3" stroke="#738bc3" stroke-width="1.51"/><path d="M1810,206L1821,396L1926,398Z" fill="#b5aaa3" stroke="#b5aaa3" stroke-width="1.51"/><path d="M1932,-233L1742,-115L1941,-37Z" fill="#ab6170" stroke="#ab6170" stroke-width="1.51"/><path d="M1735,840L1897,1037L1943,817Z" fill="#7ca9d0" stroke="#7ca9d0" stroke-width="1.51"/><path d="M1897,1037L1814,1190L1974,1194Z" fill="#5182bb" stroke="#5182bb" stroke-width="1.51"/><path d="M1810,206L1926,398L1981,223Z" fill="#b29b98" stroke="#b29b98" stroke-width="1.51"/><path d="M1880,89L1810,206L1981,223Z" fill="#b68e8c" stroke="#b68e8c" stroke-width="1.51"/><path d="M768,-226L1203,-200L1325,-230Z" fill="#e0937d" stroke="#e0937d" stroke-width="1.51"/><path d="M1814,1190L1905,1262L1974,1194Z" fill="#4774b4" stroke="#4774b4" stroke-width="1.51"/><path d="M1735,840L1777,1040L1897,1037Z" fill="#74a6ce" stroke="#74a6ce" stroke-width="1.51"/><path d="M1794,579L1892,699L1904,523Z" fill="#a9bcc9" stroke="#a9bcc9" stroke-width="1.51"/><path d="M1821,396L1904,523L1926,398Z" fill="#b0b2b0" stroke="#b0b2b0" stroke-width="1.51"/><path d="M1780,-233L1742,-115L1932,-233Z" fill="#a56171" stroke="#a56171" stroke-width="1.51"/><path d="M1800,78L1880,89L1941,-37Z" fill="#b77880" stroke="#b77880" stroke-width="1.51"/><path d="M1892,699L1784,697L1943,817Z" fill="#96b5d8" stroke="#96b5d8" stroke-width="1.51"/><path d="M1784,697L1735,840L1943,817Z" fill="#92b8d9" stroke="#92b8d9" stroke-width="1.51"/><path d="M1742,-115L1800,78L1941,-37Z" fill="#b6757b" stroke="#b6757b" stroke-width="1.51"/><path d="M1777,1040L1814,1190L1897,1037Z" fill="#5f92c3" stroke="#5f92c3" stroke-width="1.51"/><path d="M1794,579L1784,697L1892,699Z" fill="#a5bfd4" stroke="#a5bfd4" stroke-width="1.51"/><path d="M1821,396L1794,579L1904,523Z" fill="#b3bdbb" stroke="#b3bdbb" stroke-width="1.51"/><path d="M1814,1190L1767,1319L1905,1262Z" fill="#4d74b4" stroke="#4d74b4" stroke-width="1.51"/><path d="M1800,78L1810,206L1880,89Z" fill="#bb8c8a" stroke="#bb8c8a" stroke-width="1.51"/><path d="M1510,-252L1675,-200L1780,-233Z" fill="#af7179" stroke="#af7179" stroke-width="1.51"/><path d="M1810,206L1684,292L1821,396Z" fill="#bdafa2" stroke="#bdafa2" stroke-width="1.51"/><path d="M1735,840L1666,1010L1777,1040Z" fill="#7cb1d3" stroke="#7cb1d3" stroke-width="1.51"/><path d="M1742,-115L1606,-36L1800,78Z" fill="#c08281" stroke="#c08281" stroke-width="1.51"/><path d="M1800,78L1626,122L1810,206Z" fill="#c29990" stroke="#c29990" stroke-width="1.51"/><path d="M1777,1040L1665,1191L1814,1190Z" fill="#5f92c4" stroke="#5f92c4" stroke-width="1.51"/><path d="M1665,1191L1767,1319L1814,1190Z" fill="#5582bc" stroke="#5582bc" stroke-width="1.51"/><path d="M1684,292L1626,387L1821,396Z" fill="#c0c0ae" stroke="#c0c0ae" stroke-width="1.51"/><path d="M1633,567L1794,579L1821,396Z" fill="#bacac2" stroke="#bacac2" stroke-width="1.51"/><path d="M1626,387L1633,567L1821,396Z" fill="#c0cbbc" stroke="#c0cbbc" stroke-width="1.51"/><path d="M1668,635L1784,697L1794,579Z" fill="#aec9d6" stroke="#aec9d6" stroke-width="1.51"/><path d="M1665,802L1735,840L1784,697Z" fill="#9bc3de" stroke="#9bc3de" stroke-width="1.51"/><path d="M1626,122L1684,292L1810,206Z" fill="#c5aa99" stroke="#c5aa99" stroke-width="1.51"/><path d="M1675,-200L1742,-115L1780,-233Z" fill="#af6d76" stroke="#af6d76" stroke-width="1.51"/><path d="M1606,-36L1626,122L1800,78Z" fill="#c9928b" stroke="#c9928b" stroke-width="1.51"/><path d="M1666,1010L1665,1191L1777,1040Z" fill="#6ca2cc" stroke="#6ca2cc" stroke-width="1.51"/><path d="M1633,567L1668,635L1794,579Z" fill="#b8d1d1" stroke="#b8d1d1" stroke-width="1.51"/><path d="M1668,635L1665,802L1784,697Z" fill="#a8cce3" stroke="#a8cce3" stroke-width="1.51"/><path d="M1665,1191L1627,1317L1767,1319Z" fill="#5a81bb" stroke="#5a81bb" stroke-width="1.51"/><path d="M1665,802L1666,1010L1735,840Z" fill="#8dc0db" stroke="#8dc0db" stroke-width="1.51"/><path d="M1675,-200L1606,-36L1742,-115Z" fill="#bf7a7a" stroke="#bf7a7a" stroke-width="1.51"/><path d="M1606,-36L1540,59L1626,122Z" fill="#d1998e" stroke="#d1998e" stroke-width="1.51"/><path d="M1626,387L1532,441L1633,567Z" fill="#cad6c3" stroke="#cad6c3" stroke-width="1.51"/><path d="M1665,802L1469,823L1666,1010Z" fill="#98c9e0" stroke="#98c9e0" stroke-width="1.51"/><path d="M1469,823L1447,1036L1666,1010Z" fill="#93c5de" stroke="#93c5de" stroke-width="1.51"/><path d="M1526,1157L1665,1191L1666,1010Z" fill="#70a4cd" stroke="#70a4cd" stroke-width="1.51"/><path d="M1487,709L1665,802L1668,635Z" fill="#b2d5e7" stroke="#b2d5e7" stroke-width="1.51"/><path d="M1510,-252L1606,-36L1675,-200Z" fill="#bf7c7c" stroke="#bf7c7c" stroke-width="1.51"/><path d="M1428,210L1626,387L1684,292Z" fill="#cfc3ab" stroke="#cfc3ab" stroke-width="1.51"/><path d="M1626,122L1428,210L1684,292Z" fill="#d2b69f" stroke="#d2b69f" stroke-width="1.51"/><path d="M1528,1296L1627,1317L1665,1191Z" fill="#6489c0" stroke="#6489c0" stroke-width="1.51"/><path d="M1526,1157L1528,1296L1665,1191Z" fill="#6a96c7" stroke="#6a96c7" stroke-width="1.51"/><path d="M1447,1036L1526,1157L1666,1010Z" fill="#7fb3d4" stroke="#7fb3d4" stroke-width="1.51"/><path d="M1633,567L1487,709L1668,635Z" fill="#bddadd" stroke="#bddadd" stroke-width="1.51"/><path d="M1487,709L1469,823L1665,802Z" fill="#afd6e8" stroke="#afd6e8" stroke-width="1.51"/><path d="M768,-226L1050,-173L1203,-200Z" fill="#e69773" stroke="#e69773" stroke-width="1.51"/><path d="M1510,-252L1432,-38L1606,-36Z" fill="#cf8982" stroke="#cf8982" stroke-width="1.51"/><path d="M1540,59L1428,210L1626,122Z" fill="#d7ad99" stroke="#d7ad99" stroke-width="1.51"/><path d="M1428,210L1532,441L1626,387Z" fill="#d3d0b5" stroke="#d3d0b5" stroke-width="1.51"/><path d="M1532,441L1454,559L1633,567Z" fill="#cee0cd" stroke="#cee0cd" stroke-width="1.51"/><path d="M1454,559L1487,709L1633,567Z" fill="#c8e1dd" stroke="#c8e1dd" stroke-width="1.51"/><path d="M1428,210L1365,358L1532,441Z" fill="#dcd6b8" stroke="#dcd6b8" stroke-width="1.51"/><path d="M1432,-38L1540,59L1606,-36Z" fill="#d4978b" stroke="#d4978b" stroke-width="1.51"/><path d="M1012,1280L894,1281L1239,1345Z" fill="#9f9fbc" stroke="#9f9fbc" stroke-width="1.51"/><path d="M1325,-230L1432,-38L1510,-252Z" fill="#cf8a83" stroke="#cf8a83" stroke-width="1.51"/><path d="M1526,1157L1289,1235L1528,1296Z" fill="#799fcc" stroke="#799fcc" stroke-width="1.51"/><path d="M1432,-38L1345,140L1540,59Z" fill="#e0a895" stroke="#e0a895" stroke-width="1.51"/><path d="M1345,140L1428,210L1540,59Z" fill="#e0b79e" stroke="#e0b79e" stroke-width="1.51"/><path d="M1325,-230L1332,-74L1432,-38Z" fill="#dd9387" stroke="#dd9387" stroke-width="1.51"/><path d="M1351,839L1447,1036L1469,823Z" fill="#a8d6e8" stroke="#a8d6e8" stroke-width="1.51"/><path d="M1319,1120L1289,1235L1526,1157Z" fill="#86aed3" stroke="#86aed3" stroke-width="1.51"/><path d="M1289,1235L1239,1345L1528,1296Z" fill="#8197c9" stroke="#8197c9" stroke-width="1.51"/><path d="M1365,358L1454,559L1532,441Z" fill="#d9e3c8" stroke="#d9e3c8" stroke-width="1.51"/><path d="M1447,1036L1319,1120L1526,1157Z" fill="#88b7d8" stroke="#88b7d8" stroke-width="1.51"/><path d="M1330,273L1365,358L1428,210Z" fill="#e4d2b1" stroke="#e4d2b1" stroke-width="1.51"/><path d="M1351,839L1291,989L1447,1036Z" fill="#a6d1e5" stroke="#a6d1e5" stroke-width="1.51"/><path d="M1454,559L1312,662L1487,709Z" fill="#d0e9e7" stroke="#d0e9e7" stroke-width="1.51"/><path d="M1351,839L1469,823L1487,709Z" fill="#b9dfed" stroke="#b9dfed" stroke-width="1.51"/><path d="M1312,662L1351,839L1487,709Z" fill="#c7e6f1" stroke="#c7e6f1" stroke-width="1.51"/><path d="M1365,358L1287,593L1454,559Z" fill="#e0ecd1" stroke="#e0ecd1" stroke-width="1.51"/><path d="M1332,-74L1345,140L1432,-38Z" fill="#e4a493" stroke="#e4a493" stroke-width="1.51"/><path d="M1287,593L1312,662L1454,559Z" fill="#dbeee3" stroke="#dbeee3" stroke-width="1.51"/><path d="M1291,989L1319,1120L1447,1036Z" fill="#99c5df" stroke="#99c5df" stroke-width="1.51"/><path d="M1332,-74L1233,-10L1345,140Z" fill="#eca995" stroke="#eca995" stroke-width="1.51"/><path d="M1213,540L1287,593L1365,358Z" fill="#e9f0d3" stroke="#e9f0d3" stroke-width="1.51"/><path d="M1345,140L1330,273L1428,210Z" fill="#e6c7a8" stroke="#e6c7a8" stroke-width="1.51"/><path d="M1325,-230L1203,-200L1332,-74Z" fill="#db9187" stroke="#db9187" stroke-width="1.51"/><path d="M1197,250L1330,273L1345,140Z" fill="#edcdab" stroke="#edcdab" stroke-width="1.51"/><path d="M1233,-10L1213,69L1345,140Z" fill="#f1b39b" stroke="#f1b39b" stroke-width="1.51"/><path d="M1312,662L1183,793L1351,839Z" fill="#ceeaf3" stroke="#ceeaf3" stroke-width="1.51"/><path d="M1140,436L1213,540L1365,358Z" fill="#eeeecd" stroke="#eeeecd" stroke-width="1.51"/><path d="M1330,273L1197,250L1365,358Z" fill="#ebd7b6" stroke="#ebd7b6" stroke-width="1.51"/><path d="M1197,250L1140,436L1365,358Z" fill="#f0e3bf" stroke="#f0e3bf" stroke-width="1.51"/><path d="M1171,727L1183,793L1312,662Z" fill="#daf0f7" stroke="#daf0f7" stroke-width="1.51"/><path d="M1210,986L1291,989L1351,839Z" fill="#b2d8e9" stroke="#b2d8e9" stroke-width="1.51"/><path d="M1183,793L1210,986L1351,839Z" fill="#c0e3ef" stroke="#c0e3ef" stroke-width="1.51"/><path d="M1213,69L1197,250L1345,140Z" fill="#f2c3a5" stroke="#f2c3a5" stroke-width="1.51"/><path d="M1291,989L1210,986L1319,1120Z" fill="#a4cce2" stroke="#a4cce2" stroke-width="1.51"/><path d="M1203,-200L1233,-10L1332,-74Z" fill="#e89b8b" stroke="#e89b8b" stroke-width="1.51"/><path d="M1132,1116L1289,1235L1319,1120Z" fill="#97b7d9" stroke="#97b7d9" stroke-width="1.51"/><path d="M1210,986L1132,1116L1319,1120Z" fill="#a5c7e0" stroke="#a5c7e0" stroke-width="1.51"/><path d="M1287,593L1171,727L1312,662Z" fill="#dff1ef" stroke="#dff1ef" stroke-width="1.51"/><path d="M1213,540L1171,727L1287,593Z" fill="#e7f4e9" stroke="#e7f4e9" stroke-width="1.51"/><path d="M1132,1116L1239,1345L1289,1235Z" fill="#93aad3" stroke="#93aad3" stroke-width="1.51"/><path d="M705,1272L538,1329L894,1281Z" fill="#a9939c" stroke="#a9939c" stroke-width="1.51"/><path d="M1057,268L1140,436L1197,250Z" fill="#f8e2b4" stroke="#f8e2b4" stroke-width="1.51"/><path d="M1183,793L1085,802L1210,986Z" fill="#cbe8ec" stroke="#cbe8ec" stroke-width="1.51"/><path d="M1083,92L1197,250L1213,69Z" fill="#f8c4a0" stroke="#f8c4a0" stroke-width="1.51"/><path d="M1046,538L1171,727L1213,540Z" fill="#eff8e0" stroke="#eff8e0" stroke-width="1.51"/><path d="M1050,-173L986,-60L1233,-10Z" fill="#f3a281" stroke="#f3a281" stroke-width="1.51"/><path d="M1203,-200L1050,-173L1233,-10Z" fill="#ec9a86" stroke="#ec9a86" stroke-width="1.51"/><path d="M1132,1116L1012,1280L1239,1345Z" fill="#9baaca" stroke="#9baaca" stroke-width="1.51"/><path d="M1046,538L1006,640L1171,727Z" fill="#f1f8dd" stroke="#f1f8dd" stroke-width="1.51"/><path d="M1083,92L1213,69L1233,-10Z" fill="#f7b399" stroke="#f7b399" stroke-width="1.51"/><path d="M986,-60L1083,92L1233,-10Z" fill="#f8af8c" stroke="#f8af8c" stroke-width="1.51"/><path d="M1083,92L1057,268L1197,250Z" fill="#fbd1a1" stroke="#fbd1a1" stroke-width="1.51"/><path d="M1056,1101L1132,1116L1210,986Z" fill="#aecbda" stroke="#aecbda" stroke-width="1.51"/><path d="M1085,802L1002,1008L1210,986Z" fill="#c5e0e0" stroke="#c5e0e0" stroke-width="1.51"/><path d="M1140,436L1046,538L1213,540Z" fill="#f6f7cf" stroke="#f6f7cf" stroke-width="1.51"/><path d="M1002,1008L1056,1101L1210,986Z" fill="#b6d2d8" stroke="#b6d2d8" stroke-width="1.51"/><path d="M1057,268L998,376L1140,436Z" fill="#faeab2" stroke="#faeab2" stroke-width="1.51"/><path d="M1171,727L1085,802L1183,793Z" fill="#d9efef" stroke="#d9efef" stroke-width="1.51"/><path d="M1056,1101L1012,1280L1132,1116Z" fill="#a7bbca" stroke="#a7bbca" stroke-width="1.51"/><path d="M1006,640L1085,802L1171,727Z" fill="#e5f4ea" stroke="#e5f4ea" stroke-width="1.51"/><path d="M998,376L1046,538L1140,436Z" fill="#faf4be" stroke="#faf4be" stroke-width="1.51"/><path d="M768,-226L831,-165L1050,-173Z" fill="#e89467" stroke="#e89467" stroke-width="1.51"/><path d="M938,634L876,854L1006,640Z" fill="#f1f7da" stroke="#f1f7da" stroke-width="1.51"/><path d="M849,78L856,284L1057,268Z" fill="#ffd48c" stroke="#ffd48c" stroke-width="1.51"/><path d="M849,78L1057,268L1083,92Z" fill="#ffca8d" stroke="#ffca8d" stroke-width="1.51"/><path d="M986,-60L849,78L1083,92Z" fill="#ffb680" stroke="#ffb680" stroke-width="1.51"/><path d="M1006,640L876,854L1085,802Z" fill="#e6f3dd" stroke="#e6f3dd" stroke-width="1.51"/><path d="M876,854L1002,1008L1085,802Z" fill="#d4e9d7" stroke="#d4e9d7" stroke-width="1.51"/><path d="M865,1147L1012,1280L1056,1101Z" fill="#adbbbf" stroke="#adbbbf" stroke-width="1.51"/><path d="M856,-6L849,78L986,-60Z" fill="#fcae75" stroke="#fcae75" stroke-width="1.51"/><path d="M876,854L916,999L1002,1008Z" fill="#ccdecc" stroke="#ccdecc" stroke-width="1.51"/><path d="M998,376L862,445L1046,538Z" fill="#fff7b3" stroke="#fff7b3" stroke-width="1.51"/><path d="M862,445L892,567L1046,538Z" fill="#fffbb9" stroke="#fffbb9" stroke-width="1.51"/><path d="M856,284L998,376L1057,268Z" fill="#ffe59f" stroke="#ffe59f" stroke-width="1.51"/><path d="M1002,1008L865,1147L1056,1101Z" fill="#b8ccc6" stroke="#b8ccc6" stroke-width="1.51"/><path d="M865,1147L894,1281L1012,1280Z" fill="#aaadb5" stroke="#aaadb5" stroke-width="1.51"/><path d="M938,634L1006,640L1046,538Z" fill="#f8fbcf" stroke="#f8fbcf" stroke-width="1.51"/><path d="M831,-165L986,-60L1050,-173Z" fill="#f29e6e" stroke="#f29e6e" stroke-width="1.51"/><path d="M916,999L865,1147L1002,1008Z" fill="#bed0c5" stroke="#bed0c5" stroke-width="1.51"/><path d="M892,567L938,634L1046,538Z" fill="#fcfdc6" stroke="#fcfdc6" stroke-width="1.51"/><path d="M849,78L791,137L856,284Z" fill="#ffc67f" stroke="#ffc67f" stroke-width="1.51"/><path d="M856,284L862,445L998,376Z" fill="#ffeba1" stroke="#ffeba1" stroke-width="1.51"/><path d="M831,-165L856,-6L986,-60Z" fill="#f7a26c" stroke="#f7a26c" stroke-width="1.51"/><path d="M892,567L721,649L938,634Z" fill="#f9f5c2" stroke="#f9f5c2" stroke-width="1.51"/><path d="M721,649L876,854L938,634Z" fill="#f1f1d0" stroke="#f1f1d0" stroke-width="1.51"/><path d="M382,-248L572,-174L768,-226Z" fill="#df774b" stroke="#df774b" stroke-width="1.51"/><path d="M686,966L696,1133L865,1147Z" fill="#bcbfb2" stroke="#bcbfb2" stroke-width="1.51"/><path d="M862,445L790,520L892,567Z" fill="#fff4b0" stroke="#fff4b0" stroke-width="1.51"/><path d="M876,854L686,966L916,999Z" fill="#cfdac3" stroke="#cfdac3" stroke-width="1.51"/><path d="M686,966L865,1147L916,999Z" fill="#c1ccbc" stroke="#c1ccbc" stroke-width="1.51"/><path d="M856,284L761,422L862,445Z" fill="#ffe89b" stroke="#ffe89b" stroke-width="1.51"/><path d="M721,649L687,854L876,854Z" fill="#e6e5c5" stroke="#e6e5c5" stroke-width="1.51"/><path d="M790,520L721,649L892,567Z" fill="#fdf3b6" stroke="#fdf3b6" stroke-width="1.51"/><path d="M865,1147L705,1272L894,1281Z" fill="#aba7ac" stroke="#aba7ac" stroke-width="1.51"/><path d="M791,137L699,206L856,284Z" fill="#ffcb7e" stroke="#ffcb7e" stroke-width="1.51"/><path d="M831,-165L697,-66L856,-6Z" fill="#f59b64" stroke="#f59b64" stroke-width="1.51"/><path d="M696,1133L705,1272L865,1147Z" fill="#b0adaa" stroke="#b0adaa" stroke-width="1.51"/><path d="M687,854L686,966L876,854Z" fill="#d7dbbf" stroke="#d7dbbf" stroke-width="1.51"/><path d="M761,422L790,520L862,445Z" fill="#ffeda4" stroke="#ffeda4" stroke-width="1.51"/><path d="M697,-66L791,137L849,78Z" fill="#feae6e" stroke="#feae6e" stroke-width="1.51"/><path d="M699,206L761,422L856,284Z" fill="#ffd98b" stroke="#ffd98b" stroke-width="1.51"/><path d="M697,-66L849,78L856,-6Z" fill="#fba76c" stroke="#fba76c" stroke-width="1.51"/><path d="M768,-226L697,-66L831,-165Z" fill="#ec905d" stroke="#ec905d" stroke-width="1.51"/><path d="M631,825L687,854L721,649Z" fill="#e9e0bd" stroke="#e9e0bd" stroke-width="1.51"/><path d="M699,206L604,361L761,422Z" fill="#ffd686" stroke="#ffd686" stroke-width="1.51"/><path d="M761,422L628,554L790,520Z" fill="#ffeca2" stroke="#ffeca2" stroke-width="1.51"/><path d="M628,554L721,649L790,520Z" fill="#fdedad" stroke="#fdedad" stroke-width="1.51"/><path d="M572,135L699,206L791,137Z" fill="#feba71" stroke="#feba71" stroke-width="1.51"/><path d="M697,-66L572,135L791,137Z" fill="#fda967" stroke="#fda967" stroke-width="1.51"/><path d="M572,-174L697,-66L768,-226Z" fill="#ea8955" stroke="#ea8955" stroke-width="1.51"/><path d="M604,361L628,554L761,422Z" fill="#ffe094" stroke="#ffe094" stroke-width="1.51"/><path d="M686,966L599,973L696,1133Z" fill="#c6c2ad" stroke="#c6c2ad" stroke-width="1.51"/><path d="M550,-103L572,135L697,-66Z" fill="#f79458" stroke="#f79458" stroke-width="1.51"/><path d="M566,255L604,361L699,206Z" fill="#ffc778" stroke="#ffc778" stroke-width="1.51"/><path d="M696,1133L590,1177L705,1272Z" fill="#b0a3a0" stroke="#b0a3a0" stroke-width="1.51"/><path d="M559,672L631,825L721,649Z" fill="#f3e0bc" stroke="#f3e0bc" stroke-width="1.51"/><path d="M628,554L559,672L721,649Z" fill="#fbe4ae" stroke="#fbe4ae" stroke-width="1.51"/><path d="M599,973L686,966L687,854Z" fill="#d3cdb3" stroke="#d3cdb3" stroke-width="1.51"/><path d="M599,973L590,1177L696,1133Z" fill="#beb2a5" stroke="#beb2a5" stroke-width="1.51"/><path d="M572,-174L550,-103L697,-66Z" fill="#ef854f" stroke="#ef854f" stroke-width="1.51"/><path d="M590,1177L538,1329L705,1272Z" fill="#ad9195" stroke="#ad9195" stroke-width="1.51"/><path d="M631,825L599,973L687,854Z" fill="#dbd2b4" stroke="#dbd2b4" stroke-width="1.51"/><path d="M572,135L566,255L699,206Z" fill="#feba6d" stroke="#feba6d" stroke-width="1.51"/><path d="M6,-226L270,-209L382,-248Z" fill="#d44433" stroke="#d44433" stroke-width="1.51"/><path d="M452,692L431,842L559,672Z" fill="#f2ceab" stroke="#f2ceab" stroke-width="1.51"/><path d="M550,-103L417,70L572,135Z" fill="#f99054" stroke="#f99054" stroke-width="1.51"/><path d="M431,842L460,981L599,973Z" fill="#d6bda3" stroke="#d6bda3" stroke-width="1.51"/><path d="M460,981L590,1177L599,973Z" fill="#c5b3a0" stroke="#c5b3a0" stroke-width="1.51"/><path d="M460,347L466,578L604,361Z" fill="#ffcf83" stroke="#ffcf83" stroke-width="1.51"/><path d="M604,361L466,578L628,554Z" fill="#ffdb92" stroke="#ffdb92" stroke-width="1.51"/><path d="M466,578L559,672L628,554Z" fill="#fddba2" stroke="#fddba2" stroke-width="1.51"/><path d="M431,842L599,973L631,825Z" fill="#ddcaac" stroke="#ddcaac" stroke-width="1.51"/><path d="M559,672L431,842L631,825Z" fill="#ebd1af" stroke="#ebd1af" stroke-width="1.51"/><path d="M460,981L396,1192L590,1177Z" fill="#bd9f95" stroke="#bd9f95" stroke-width="1.51"/><path d="M566,255L460,347L604,361Z" fill="#ffc676" stroke="#ffc676" stroke-width="1.51"/><path d="M457,295L460,347L566,255Z" fill="#febd6f" stroke="#febd6f" stroke-width="1.51"/><path d="M396,1192L538,1329L590,1177Z" fill="#b08c8e" stroke="#b08c8e" stroke-width="1.51"/><path d="M379,-98L417,70L550,-103Z" fill="#f27d48" stroke="#f27d48" stroke-width="1.51"/><path d="M457,295L566,255L572,135Z" fill="#feb768" stroke="#feb768" stroke-width="1.51"/><path d="M417,70L457,295L572,135Z" fill="#fca65d" stroke="#fca65d" stroke-width="1.51"/><path d="M379,-98L550,-103L572,-174Z" fill="#eb7745" stroke="#eb7745" stroke-width="1.51"/><path d="M382,-248L379,-98L572,-174Z" fill="#e36c40" stroke="#e36c40" stroke-width="1.51"/><path d="M466,578L452,692L559,672Z" fill="#fad4a3" stroke="#fad4a3" stroke-width="1.51"/><path d="M460,347L333,432L466,578Z" fill="#ffc67f" stroke="#ffc67f" stroke-width="1.51"/><path d="M396,1192L382,1313L538,1329Z" fill="#ad7b85" stroke="#ad7b85" stroke-width="1.51"/><path d="M417,70L326,204L457,295Z" fill="#fca05a" stroke="#fca05a" stroke-width="1.51"/><path d="M312,142L326,204L417,70Z" fill="#fa9052" stroke="#fa9052" stroke-width="1.51"/><path d="M379,-98L324,-14L417,70Z" fill="#f27746" stroke="#f27746" stroke-width="1.51"/><path d="M318,813L431,842L452,692Z" fill="#ecc1a3" stroke="#ecc1a3" stroke-width="1.51"/><path d="M431,842L318,813L460,981Z" fill="#dfb99f" stroke="#dfb99f" stroke-width="1.51"/><path d="M318,813L237,1025L460,981Z" fill="#d6a997" stroke="#d6a997" stroke-width="1.51"/><path d="M276,1120L396,1192L460,981Z" fill="#c0968f" stroke="#c0968f" stroke-width="1.51"/><path d="M237,1025L276,1120L460,981Z" fill="#c79a8f" stroke="#c79a8f" stroke-width="1.51"/><path d="M239,705L452,692L466,578Z" fill="#f9c69d" stroke="#f9c69d" stroke-width="1.51"/><path d="M266,505L239,705L466,578Z" fill="#fec18e" stroke="#fec18e" stroke-width="1.51"/><path d="M333,432L266,505L466,578Z" fill="#ffc382" stroke="#ffc382" stroke-width="1.51"/><path d="M457,295L333,432L460,347Z" fill="#febd72" stroke="#febd72" stroke-width="1.51"/><path d="M326,204L333,432L457,295Z" fill="#fdb068" stroke="#fdb068" stroke-width="1.51"/><path d="M239,705L318,813L452,692Z" fill="#f2bca1" stroke="#f2bca1" stroke-width="1.51"/><path d="M6,-226L91,-191L270,-209Z" fill="#d1392e" stroke="#d1392e" stroke-width="1.51"/><path d="M177,1246L13,1261L303,1302Z" fill="#a95c73" stroke="#a95c73" stroke-width="1.51"/><path d="M270,-209L379,-98L382,-248Z" fill="#df5b3b" stroke="#df5b3b" stroke-width="1.51"/><path d="M303,1302L382,1313L396,1192Z" fill="#ad7380" stroke="#ad7380" stroke-width="1.51"/><path d="M324,-14L312,142L417,70Z" fill="#f8814c" stroke="#f8814c" stroke-width="1.51"/><path d="M276,1120L303,1302L396,1192Z" fill="#b37c83" stroke="#b37c83" stroke-width="1.51"/><path d="M326,204L177,436L333,432Z" fill="#fdab69" stroke="#fdab69" stroke-width="1.51"/><path d="M270,-209L324,-14L379,-98Z" fill="#e9613a" stroke="#e9613a" stroke-width="1.51"/><path d="M276,1120L177,1246L303,1302Z" fill="#b1707c" stroke="#b1707c" stroke-width="1.51"/><path d="M99,817L237,1025L318,813Z" fill="#dda292" stroke="#dda292" stroke-width="1.51"/><path d="M270,-209L98,-97L324,-14Z" fill="#e65235" stroke="#e65235" stroke-width="1.51"/><path d="M180,135L312,142L324,-14Z" fill="#f77b48" stroke="#f77b48" stroke-width="1.51"/><path d="M134,185L177,436L326,204Z" fill="#f99659" stroke="#f99659" stroke-width="1.51"/><path d="M177,436L266,505L333,432Z" fill="#ffb275" stroke="#ffb275" stroke-width="1.51"/><path d="M312,142L180,135L326,204Z" fill="#f9894f" stroke="#f9894f" stroke-width="1.51"/><path d="M180,135L134,185L326,204Z" fill="#f7854d" stroke="#f7854d" stroke-width="1.51"/><path d="M98,-97L180,135L324,-14Z" fill="#ef633d" stroke="#ef633d" stroke-width="1.51"/><path d="M189,721L99,817L318,813Z" fill="#eaa995" stroke="#eaa995" stroke-width="1.51"/><path d="M239,705L189,721L318,813Z" fill="#f1b09a" stroke="#f1b09a" stroke-width="1.51"/><path d="M97,500L239,705L266,505Z" fill="#fcb382" stroke="#fcb382" stroke-width="1.51"/><path d="M99,817L101,1014L237,1025Z" fill="#d09289" stroke="#d09289" stroke-width="1.51"/><path d="M97,500L189,721L239,705Z" fill="#f7ad8c" stroke="#f7ad8c" stroke-width="1.51"/><path d="M91,-191L98,-97L270,-209Z" fill="#da4230" stroke="#da4230" stroke-width="1.51"/><path d="M237,1025L139,1142L276,1120Z" fill="#bf8383" stroke="#bf8383" stroke-width="1.51"/><path d="M139,1142L177,1246L276,1120Z" fill="#b5747d" stroke="#b5747d" stroke-width="1.51"/><path d="M177,436L97,500L266,505Z" fill="#fcac73" stroke="#fcac73" stroke-width="1.51"/><path d="M134,185L2,261L177,436Z" fill="#f48e55" stroke="#f48e55" stroke-width="1.51"/><path d="M98,-97L11,61L180,135Z" fill="#eb5a39" stroke="#eb5a39" stroke-width="1.51"/><path d="M97,500L33,705L189,721Z" fill="#f4a787" stroke="#f4a787" stroke-width="1.51"/><path d="M101,1014L139,1142L237,1025Z" fill="#c18482" stroke="#c18482" stroke-width="1.51"/><path d="M2,261L-17,401L177,436Z" fill="#f3945b" stroke="#f3945b" stroke-width="1.51"/><path d="M33,705L99,817L189,721Z" fill="#eba190" stroke="#eba190" stroke-width="1.51"/><path d="M99,817L-17,893L101,1014Z" fill="#d39085" stroke="#d39085" stroke-width="1.51"/><path d="M139,1142L13,1261L177,1246Z" fill="#ac6373" stroke="#ac6373" stroke-width="1.51"/><path d="M-17,401L97,500L177,436Z" fill="#f7a068" stroke="#f7a068" stroke-width="1.51"/><path d="M11,61L134,185L180,135Z" fill="#ef7042" stroke="#ef7042" stroke-width="1.51"/><path d="M-49,518L33,705L97,500Z" fill="#f4a176" stroke="#f4a176" stroke-width="1.51"/><path d="M-41,1135L13,1261L139,1142Z" fill="#ad6371" stroke="#ad6371" stroke-width="1.51"/><path d="M101,1014L-4,1041L139,1142Z" fill="#bd7b7d" stroke="#bd7b7d" stroke-width="1.51"/><path d="M-4,1041L-41,1135L139,1142Z" fill="#b66f76" stroke="#b66f76" stroke-width="1.51"/><path d="M11,61L2,261L134,185Z" fill="#ed7342" stroke="#ed7342" stroke-width="1.51"/><path d="M-17,401L-49,518L97,500Z" fill="#f39a67" stroke="#f39a67" stroke-width="1.51"/><path d="M-46,-57L11,61L98,-97Z" fill="#e1462f" stroke="#e1462f" stroke-width="1.51"/><path d="M91,-191L6,-226L98,-97Z" fill="#d3352a" stroke="#d3352a" stroke-width="1.51"/><path d="M6,-226L-46,-57L98,-97Z" fill="#d73328" stroke="#d73328" stroke-width="1.51"/><path d="M-17,893L-4,1041L101,1014Z" fill="#c6827f" stroke="#c6827f" stroke-width="1.51"/><path d="M33,705L-17,893L99,817Z" fill="#e09789" stroke="#e09789" stroke-width="1.51"/><path d="M-136,265L2,261L11,61Z" fill="#e77041" stroke="#e77041" stroke-width="1.51"/><path d="M-114,595L-206,692L33,705Z" fill="#e39583" stroke="#e39583" stroke-width="1.51"/><path d="M-168,879L-17,893L33,705Z" fill="#d68e85" stroke="#d68e85" stroke-width="1.51"/><path d="M-206,692L-168,879L33,705Z" fill="#d78f87" stroke="#d78f87" stroke-width="1.51"/><path d="M-49,518L-114,595L33,705Z" fill="#ec9a7a" stroke="#ec9a7a" stroke-width="1.51"/><path d="M-17,893L-208,945L-4,1041Z" fill="#c07e7d" stroke="#c07e7d" stroke-width="1.51"/><path d="M-136,265L-17,401L2,261Z" fill="#e98250" stroke="#e98250" stroke-width="1.51"/><path d="M-162,-99L-46,-57L6,-226Z" fill="#cf2a27" stroke="#cf2a27" stroke-width="1.51"/><path d="M-149,-237L-162,-99L6,-226Z" fill="#c22027" stroke="#c22027" stroke-width="1.51"/><path d="M-207,36L-136,265L11,61Z" fill="#dd5c3b" stroke="#dd5c3b" stroke-width="1.51"/><path d="M-41,1135L-143,1167L13,1261Z" fill="#a35a6d" stroke="#a35a6d" stroke-width="1.51"/><path d="M-143,1167L-191,1244L13,1261Z" fill="#9a506a" stroke="#9a506a" stroke-width="1.51"/><path d="M-46,-57L-207,36L11,61Z" fill="#db4632" stroke="#db4632" stroke-width="1.51"/><path d="M-136,265L-172,338L-17,401Z" fill="#e38353" stroke="#e38353" stroke-width="1.51"/><path d="M-168,879L-208,945L-17,893Z" fill="#c18180" stroke="#c18180" stroke-width="1.51"/><path d="M-143,1167L-41,1135L-4,1041Z" fill="#ad6773" stroke="#ad6773" stroke-width="1.51"/><path d="M-208,945L-143,1167L-4,1041Z" fill="#af6f77" stroke="#af6f77" stroke-width="1.51"/><path d="M-172,338L-49,518L-17,401Z" fill="#e98f5e" stroke="#e98f5e" stroke-width="1.51"/><path d="M-162,-99L-207,36L-46,-57Z" fill="#cf382d" stroke="#cf382d" stroke-width="1.51"/><path d="M-172,338L-114,595L-49,518Z" fill="#e79367" stroke="#e79367" stroke-width="1.51"/><path d="M-172,338L-206,692L-114,595Z" fill="#e3956e" stroke="#e3956e" stroke-width="1.51"/><path d="M-208,945L-191,1244L-143,1167Z" fill="#9f5f71" stroke="#9f5f71" stroke-width="1.51"/><path d="M-207,36L-172,338L-136,265Z" fill="#da6b43" stroke="#da6b43" stroke-width="1.51"/><path d="M-207,36L-162,-99L-149,-237Z" fill="#c72829" stroke="#c72829" stroke-width="1.51"/><path d="M-206,692L-208,945L-168,879Z" fill="#c48483" stroke="#c48483" stroke-width="1.51"/><path d="M-207,36L-206,692L-172,338Z" fill="#da8055" stroke="#da8055" stroke-width="1.51"/></svg>